<svg width="1334" height="501" viewBox="0 0 1334 501" fill="none" xmlns="http://www.w3.org/2000/svg">
<path d="M116.179 188.168L0.168788 73.257L40.8548 34.7702L193.702 187.618V188.168L40.8548 341.015L1.26841 304.728L116.179 188.168ZM308.037 392.148C252.323 391.048 224.466 364.474 224.466 312.425V0.132036H286.045V109.544H338.277L325.082 166.175H286.045V312.425C286.045 324.887 289.527 333.318 296.491 337.716C303.456 341.748 313.352 343.764 326.181 343.764L308.037 392.148ZM583.171 385C543.584 389.032 514.994 391.048 497.4 391.048C458.913 391.048 428.307 383.9 405.582 369.605C382.856 355.31 371.493 329.469 371.493 292.082V246.448C371.493 210.16 384.139 185.785 409.43 173.323C421.526 167.458 435.271 164.526 450.666 164.526C464.228 164.526 477.607 166.358 490.802 170.024C503.998 173.689 514.628 177.721 522.691 182.12C522.691 168.558 517.193 159.394 506.197 154.629C495.201 149.497 481.089 146.932 463.862 146.932L468.81 105.146C503.998 105.146 529.839 110.827 546.333 122.19C563.194 133.186 573.457 146.382 577.123 161.777C581.155 177.171 583.171 196.965 583.171 221.156V385ZM522.691 246.448C516.094 241.683 506.747 237.284 494.651 233.252C482.922 228.854 472.109 226.654 462.212 226.654C453.415 226.654 446.268 228.854 440.77 233.252C435.271 237.651 432.522 244.615 432.522 254.145V284.385C432.522 317.74 452.132 334.417 491.352 334.417C502.715 334.417 513.161 333.501 522.691 331.668V246.448ZM683.241 309.126C683.241 315.724 686.54 321.955 693.137 327.82C700.102 333.684 710.548 336.617 724.477 336.617C736.572 336.617 745.919 333.684 752.517 327.82C759.115 321.588 762.414 314.441 762.414 306.377C762.414 295.014 758.198 286.584 749.768 281.086C741.704 275.588 728.508 269.54 710.181 262.942C694.42 257.81 681.408 252.679 671.145 247.547C660.882 242.416 651.718 234.718 643.654 224.455C635.59 214.192 630.825 200.813 629.359 184.319C628.26 171.856 630.642 159.394 636.507 146.932C642.738 134.103 653.001 123.656 667.296 115.592C681.958 107.162 700.651 102.947 723.377 102.947C735.106 102.947 745.369 104.23 754.166 106.795C763.33 108.995 770.477 111.377 775.609 113.943C780.741 116.509 783.856 118.158 784.956 118.891L767.362 174.972C766.629 174.239 764.613 172.956 761.314 171.123C758.382 168.924 753.617 166.908 747.019 165.075C740.421 163.243 732.54 162.326 723.377 162.326C703.584 162.326 693.687 167.825 693.687 178.821C693.687 181.02 694.054 183.219 694.787 185.418C695.886 190.55 699.735 194.949 706.333 198.614C712.93 201.913 722.644 205.945 735.473 210.71C753.433 217.308 768.461 223.905 780.557 230.503C793.02 236.734 803.649 246.264 812.446 259.093C821.61 271.556 826.192 287.683 826.192 307.477C826.192 322.505 822.526 336.617 815.195 349.812C807.865 362.641 796.502 373.087 781.107 381.151C766.079 389.215 747.202 393.247 724.477 393.247C703.584 393.247 685.44 389.765 670.045 382.801C655.017 375.47 643.471 365.94 635.407 354.211C627.71 342.481 623.494 329.469 622.761 315.174L683.241 309.126ZM943.117 245.348L935.419 253.045V385H874.94V0.132036H935.419V174.972L1017.34 99.0981L1061.88 141.434L989.851 202.463C992.416 206.128 996.265 212.542 1001.4 221.706C1040.62 286.95 1073.97 341.382 1101.46 385H1025.59L943.117 245.348ZM1203.06 452.627C1212.59 452.627 1221.02 449.694 1228.35 443.83C1236.05 437.965 1239.89 428.618 1239.89 415.789V383.9C1238.79 384.267 1234.58 385.55 1227.25 387.749C1219.92 390.315 1209.11 391.598 1194.81 391.598C1162.55 391.598 1137.63 382.984 1120.04 365.757C1102.81 348.163 1094.19 322.322 1094.19 288.233V109.544H1154.67V271.739C1154.67 294.831 1157.61 310.592 1163.47 319.023C1169.7 327.087 1180.15 331.118 1194.81 331.118C1205.44 331.118 1213.87 329.652 1220.1 326.72C1226.7 323.421 1231.65 317.556 1234.95 309.126C1238.25 300.329 1239.89 287.867 1239.89 271.739V185.418C1239.89 172.956 1242.83 160.677 1248.69 148.581C1254.92 136.485 1263.35 126.405 1273.98 118.341C1284.98 110.278 1297.26 105.696 1310.82 104.596L1333.36 154.079C1322.73 156.645 1314.49 161.777 1308.62 169.474C1303.12 176.805 1300.37 185.052 1300.37 194.215V418.538C1300.37 442.364 1294.69 461.057 1283.33 474.619C1272.33 488.548 1253.46 497.162 1226.7 500.46L1203.06 452.627Z" fill="url(#paint0_linear_8_2)"/>
<path d="M-6.97876 439.981H200.3V467.472H-6.97876V439.981Z" fill="url(#paint1_linear_8_2)"/>
<path d="M200.274 220.057H1352.06V247.547H200.274V220.057Z" fill="url(#paint2_linear_8_2)"/>
<defs>
<linearGradient id="paint0_linear_8_2" x1="672.5" y1="-145" x2="672.5" y2="513" gradientUnits="userSpaceOnUse">
<stop stop-color="#20617D"/>
<stop offset="1" stop-color="#71ACC5"/>
</linearGradient>
<linearGradient id="paint1_linear_8_2" x1="672.5" y1="-145" x2="672.5" y2="513" gradientUnits="userSpaceOnUse">
<stop stop-color="#20617D"/>
<stop offset="1" stop-color="#71ACC5"/>
</linearGradient>
<linearGradient id="paint2_linear_8_2" x1="672.5" y1="-145" x2="672.5" y2="513" gradientUnits="userSpaceOnUse">
<stop stop-color="#20617D"/>
<stop offset="1" stop-color="#71ACC5"/>
</linearGradient>
</defs>
</svg>
